<svg id="Capa_1" data-name="Capa 1" xmlns="http://www.w3.org/2000/svg" viewBox="0 0 55.47 49.17"><defs><style>.cls-1{fill:#fcc012;}.cls-2{fill:none;stroke:#333;stroke-linecap:round;stroke-linejoin:round;stroke-width:3px;}.cls-3{fill:#abc43a;}</style></defs><title>BACKPACK_ICON</title><polyline class="cls-1" points="6.54 41.4 3.6 41.4 3.6 28.87 6.54 28.87"/><path class="cls-2" d="M6.54,41.4H4A2.73,2.73,0,0,1,1.5,38.51v-9.4A2.73,2.73,0,0,1,4,26.22H6.54"/><polyline class="cls-1" points="48.63 41.4 51.74 41.4 51.74 28.87 48.63 28.87"/><path class="cls-2" d="M48.63,41.4H51.3A2.79,2.79,0,0,0,54,38.51v-9.4a2.79,2.79,0,0,0-2.67-2.89H48.63"/><rect class="cls-1" x="11.33" y="4.76" width="37" height="42.91" rx="11.27" ry="11.27"/><path class="cls-2" d="M8.76,8.52A10,10,0,0,1,16.6,4.76H38.27A10.06,10.06,0,0,1,48.33,14.82V25.05"/><path class="cls-2" d="M6.54,14.82a10.07,10.07,0,0,1,.36-2.68"/><path class="cls-2" d="M48.33,34.16v3.45A10.06,10.06,0,0,1,38.27,47.67H16.6A10.06,10.06,0,0,1,6.54,37.61v-19"/><line class="cls-2" x1="48.33" y1="28.78" x2="48.33" y2="30.3"/><rect class="cls-3" x="12.76" y="1.5" width="29.35" height="24.75" rx="7.35" ry="7.35"/><line class="cls-2" x1="21.09" y1="1.5" x2="23.89" y2="1.5"/><path class="cls-2" d="M27.91,1.5h9.64a4.56,4.56,0,0,1,4.56,4.56V21.7a4.56,4.56,0,0,1-4.56,4.56H17.32a4.56,4.56,0,0,1-4.56-4.56V6.06A4.56,4.56,0,0,1,17.32,1.5"/><path class="cls-2" d="M41.17,43.26A4.55,4.55,0,0,1,37.57,45H17.3a4.56,4.56,0,0,1-4.56-4.56V35.72a4.56,4.56,0,0,1,4.56-4.56H37.57a4.56,4.56,0,0,1,4.56,4.56"/><line class="cls-2" x1="42.13" y1="39.15" x2="42.13" y2="40.12"/><line class="cls-2" x1="12.76" y1="34.8" x2="42.11" y2="34.8"/><line class="cls-2" x1="48.63" y1="33.64" x2="53.97" y2="33.64"/><line class="cls-2" x1="5.07" y1="33.64" x2="1.5" y2="33.64"/></svg>