<svg id="Capa_1" data-name="Capa 1" xmlns="http://www.w3.org/2000/svg" viewBox="0 0 49.02 54.28"><defs><style>.cls-1{fill:#fcc012;}.cls-2,.cls-7{fill:#51547d;}.cls-2,.cls-6{opacity:0.5;}.cls-3,.cls-8{fill:none;stroke-linecap:round;stroke-linejoin:round;stroke-width:4px;}.cls-3{stroke:#333;}.cls-4,.cls-5{fill:#c73e55;}.cls-4{fill-rule:evenodd;}.cls-8{stroke:#fff;}</style></defs><title>COIN_ICON</title><path class="cls-1" d="M47,23.81v6A22.51,22.51,0,0,1,24.51,52.28c-12.43,0-17.58-6.57-19.88-13.47"/><path class="cls-2" d="M47,23.81v6A22.51,22.51,0,0,1,24.51,52.28C12.08,52.28,4.3,43.74,4,39.13"/><path class="cls-3" d="M47,23.81v6a22.51,22.51,0,0,1-45,0V23.2"/><line class="cls-3" x1="11.53" y1="42.42" x2="11.53" y2="47.68"/><line class="cls-3" x1="37.82" y1="42.42" x2="37.82" y2="47.68"/><line class="cls-3" x1="17.45" y1="45.05" x2="17.45" y2="50.31"/><line class="cls-3" x1="31.9" y1="45.05" x2="31.9" y2="50.31"/><line class="cls-3" x1="25" y1="46.69" x2="25" y2="51.95"/><circle class="cls-1" cx="24.84" cy="24.84" r="22.18"/><path class="cls-4" d="M24.25,31.58A1.83,1.83,0,1,1,22.07,33a1.83,1.83,0,0,1,2.18-1.4Z"/><path class="cls-5" d="M40,26.65,39.56,26a5.52,5.52,0,0,0-3.84-6,5.52,5.52,0,0,0-5.6-4,5.52,5.52,0,0,0-6.73-1.24,5.5,5.5,0,0,0-7.45,1.7A5.5,5.5,0,0,0,10.68,21l-.08.05-.69.56h0a3.07,3.07,0,0,0,1.64,5.44l.31,0a3,3,0,0,0,1.94-.69L15.51,25l.14-.14.11-.06A13.28,13.28,0,0,1,32,26.31a1.08,1.08,0,0,0,.22.29,2.32,2.32,0,0,1,.94,1.7,1.05,1.05,0,0,1-.38.79.92.92,0,0,1-1.22-.1c-1.53-2.13-3.38-4.18-6.46-4.86a11.17,11.17,0,0,0-4.92,0c-1.45.34-3.7,1.55-3.93,3.49A2.66,2.66,0,0,0,17.12,30a3.88,3.88,0,0,0,3.41.63c.45-.11.87-.25,1.28-.38a5.27,5.27,0,0,1,2.47-.42,2.92,2.92,0,0,1,2.25,2,1.08,1.08,0,0,0,2-.74,5.05,5.05,0,0,0-3.93-3.36,7.17,7.17,0,0,0-3.49.49c-.39.13-.75.25-1.12.33a1.83,1.83,0,0,1-1.47-.15s-.16-.14-.12-.51c.08-.65,1.27-1.41,2.28-1.65a9.13,9.13,0,0,1,4,0c2.19.48,3.63,1.89,5.07,3.87l.07.11.1.13.14.15a3.05,3.05,0,0,0,1.79.91l.43,0A3,3,0,0,0,34.85,30,3.07,3.07,0,0,0,40,26.65Zm-1.72,1.83a.91.91,0,0,1-1.66.27L36,27.81a1.08,1.08,0,0,0-.08-.16l-.25-.38-.25-.4a1.08,1.08,0,0,0-.23-.26A15.43,15.43,0,0,0,14.6,23a1.08,1.08,0,0,0-.24.21,1.09,1.09,0,0,0-.21.13l-1.72,1.41a.91.91,0,0,1-1.16-1.41l.69-.55.15-.15a1.08,1.08,0,0,0,.66-.9,3.35,3.35,0,0,1,3.63-3A1.08,1.08,0,0,0,17.47,18a1.07,1.07,0,0,0,.22-.26,3.35,3.35,0,0,1,4.6-1.12,1.08,1.08,0,0,0,.35.13,1.08,1.08,0,0,0,1.41.14,3.35,3.35,0,0,1,4.65.77,1.08,1.08,0,0,0,1.14.54A3.35,3.35,0,0,1,33.73,21a1.67,1.67,0,0,0,1,1.05,3.35,3.35,0,0,1,2.6,4,1.08,1.08,0,0,0,.19.86,1.08,1.08,0,0,0,.11.22l.47.74A.91.91,0,0,1,38.26,28.48Z"/><g class="cls-6"><path class="cls-7" d="M34.27,4.22A22.51,22.51,0,0,1,10.15,41.84,22.51,22.51,0,1,0,34.27,4.22Z"/></g><path class="cls-3" d="M44.57,14.29a22.5,22.5,0,1,1-9.5-9.66"/><path class="cls-3" d="M39.13,7.26a34.87,34.87,0,0,1,3.29,3.61"/><path class="cls-8" d="M10.66,15.78A16.34,16.34,0,0,1,24.43,8.24"/><path class="cls-8" d="M8.08,24.59a16.37,16.37,0,0,1,.56-4.27"/></svg>