<svg id="Capa_1" data-name="Capa 1" xmlns="http://www.w3.org/2000/svg" viewBox="0 0 570 638"><defs><style>.cls-1{fill:#2db2b1;}.cls-2{fill:#00c674;}.cls-3{fill:#ff9f45;}.cls-4{fill:#ff5361;}.cls-5{fill:#1b689e;}.cls-6{fill:#fcc012;}.cls-7{fill:#abc43a;}.cls-8{fill:#51547d;}.cls-9{fill:#81568b;}.cls-10{fill:#1a1d2d;}.cls-11{fill:#9d9d9d;}.cls-12,.cls-13{fill:#333;}.cls-13{font-size:32.47px;font-family:OpenSans-Extrabold, Open Sans;font-weight:700;}</style></defs><title>COLOR PALETTE</title><rect class="cls-1" x="25" y="226.5" width="53" height="53"/><rect class="cls-2" x="25" y="292.5" width="53" height="53"/><rect class="cls-3" x="25" y="490.5" width="53" height="53"/><rect class="cls-4" x="25" y="556.5" width="53" height="53"/><rect class="cls-5" x="25" y="160.5" width="53" height="53"/><rect class="cls-6" x="25" y="424.5" width="53" height="53"/><rect class="cls-7" x="25" y="358.5" width="53" height="53"/><rect class="cls-8" x="25" y="94.5" width="53" height="53"/><rect class="cls-9" x="25" y="28.5" width="53" height="53"/><rect class="cls-10" x="285" y="558" width="53" height="53"/><rect class="cls-11" x="285" y="430" width="53" height="53"/><rect class="cls-12" x="285" y="496" width="53" height="53"/><text class="cls-13" transform="translate(97 64.68)">#81568B</text><text class="cls-13" transform="translate(97 129.68)">#51547D</text><text class="cls-13" transform="translate(97 194.68)">#1B689E</text><text class="cls-13" transform="translate(97 259.68)">#2DB2B1</text><text class="cls-13" transform="translate(97 324.68)">#00C674</text><text class="cls-13" transform="translate(355 461.68)">#9D9D9D</text><text class="cls-13" transform="translate(355 526.68)">#333333</text><text class="cls-13" transform="translate(355 591.68)">#1A1D2D</text><text class="cls-13" transform="translate(97 389.68)">#ABC43A</text><text class="cls-13" transform="translate(97 454.68)">#FCC012</text><text class="cls-13" transform="translate(97 589.68)">#FF5361</text><text class="cls-13" transform="translate(97 519.68)">#FF9F45</text></svg>