<svg id="Capa_1" data-name="Capa 1" xmlns="http://www.w3.org/2000/svg" viewBox="0 0 46.2 46.2"><defs><style>.cls-1{fill:#fff;stroke-width:2px;}.cls-1,.cls-2{stroke:#fff;stroke-miterlimit:10;}.cls-2{fill:none;stroke-width:3px;}</style></defs><title>HELP_ICON</title><g id="AYUDA"><path class="cls-1" d="M23.72,29l-3.79-.6a9.35,9.35,0,0,1,.69-3.77,6.36,6.36,0,0,1,1.7-2.41q1-.83,2-1.54,2.37-1.63,2.37-3.72a3.25,3.25,0,0,0-1-2.6,4,4,0,0,0-2.74-.9,5.68,5.68,0,0,0-4.6,2.69l-1.84-2a8,8,0,0,1,7.08-3.75,7.51,7.51,0,0,1,5.35,1.73A6.39,6.39,0,0,1,30.73,17a6.83,6.83,0,0,1-.5,2.69A4.86,4.86,0,0,1,29,21.53q-.76.66-1.66,1.38t-1.66,1.4a5.51,5.51,0,0,0-1.31,1.88A7.49,7.49,0,0,0,23.72,29ZM21.95,36.7a2,2,0,0,1-2.09-2.2q0-2.3,2.41-2.3a2,2,0,0,1,1.42.55,2.14,2.14,0,0,1,.57,1.61A2,2,0,0,1,21.95,36.7Z"/><circle id="AYUDA-2" data-name="AYUDA" class="cls-2" cx="23.1" cy="23.1" r="21.6"/></g></svg>