<svg id="Capa_1" data-name="Capa 1" xmlns="http://www.w3.org/2000/svg" viewBox="0 0 91.11 91.11"><defs><style>.cls-1{fill:#b3b3b3;}.cls-2,.cls-3{fill:#fff;stroke:#00c674;}.cls-2{stroke-miterlimit:10;stroke-width:4px;}.cls-3{stroke-linecap:round;stroke-linejoin:round;stroke-width:3px;}</style></defs><title>INNOVACION_MINIBTN_OVER</title><path class="cls-1" d="M3.4,48.9a42.65,42.65,0,0,1,85.3,0"/><circle class="cls-2" cx="45.56" cy="45.56" r="43.56"/><rect class="cls-3" x="39.73" y="55.68" width="11.58" height="7.99"/><line class="cls-3" x1="39.75" y1="60.27" x2="51.3" y2="59.59"/><path class="cls-3" d="M54.88,31.87A12.33,12.33,0,1,0,41.22,51.45v4.23h8.6V51.45A12.37,12.37,0,0,0,57.16,44"/><path class="cls-3" d="M57.85,38.81a5.38,5.38,0,0,0-.41-2.07"/><path class="cls-3" d="M41.26,33.06A8.51,8.51,0,0,0,37,40.44"/><path class="cls-3" d="M45.52,31.92c-.58,0,.29-.11-.26,0"/></svg>