<svg id="Capa_1" data-name="Capa 1" xmlns="http://www.w3.org/2000/svg" viewBox="0 0 34.16 52.45"><defs><style>.cls-1{fill:#2db2b1;}.cls-2{opacity:0.5;}.cls-3{fill:#51547d;}.cls-4,.cls-6{fill:none;stroke-linecap:round;stroke-linejoin:round;stroke-width:3px;}.cls-4{stroke:#333;}.cls-5{fill:#fcc012;}.cls-6{stroke:#fff;}</style></defs><title>MEDAL_ICON</title><polygon class="cls-1" points="24.38 19.34 32.66 47.56 24.38 43.8 18.36 50.95 12.34 24.61 24.38 19.34"/><g class="cls-2"><polygon class="cls-3" points="24.38 19.34 32.66 47.56 24.38 43.8 18.36 50.95 12.34 24.61 24.38 19.34"/></g><polygon class="cls-4" points="24.38 19.34 32.66 47.56 24.38 43.8 18.36 50.95 12.34 24.61 24.38 19.34"/><polygon class="cls-1" points="13.64 19.34 5.31 45.68 9.88 43.92 15.85 50.95 22.52 24.25 13.64 19.34"/><polygon class="cls-4" points="9.78 19.34 1.5 47.56 9.78 43.8 15.8 50.95 21.82 24.61 9.78 19.34"/><circle class="cls-5" cx="17.29" cy="15.86" r="14.36"/><circle class="cls-4" cx="17.29" cy="15.86" r="6.46"/><g class="cls-2"><path class="cls-3" d="M23.4,2.51A14.58,14.58,0,0,1,7.78,26.87,14.58,14.58,0,1,0,23.4,2.51Z"/></g><path class="cls-4" d="M30.74,10.82a14.35,14.35,0,1,1-10.56-9"/><path class="cls-4" d="M24.63,3.53a8.63,8.63,0,0,1,3.51,2.81"/><path class="cls-6" d="M9.23,9.89A9.21,9.21,0,0,1,17,5.64"/><path class="cls-6" d="M7.77,14.86a9.23,9.23,0,0,1,.32-2.41"/></svg>