<svg xmlns="http://www.w3.org/2000/svg" xmlns:xlink="http://www.w3.org/1999/xlink" viewBox="0 0 113.13 113.13"><defs><style>.cls-1,.cls-12,.cls-16,.cls-3,.cls-9{fill:none;}.cls-2{isolation:isolate;}.cls-3{stroke:#fff;}.cls-15,.cls-16,.cls-17,.cls-3,.cls-9{stroke-linecap:round;stroke-linejoin:round;}.cls-10,.cls-12,.cls-3,.cls-9{stroke-width:4px;}.cls-4{clip-path:url(#clip-path);}.cls-5{fill:#fff;}.cls-6{fill:#ff5361;}.cls-14,.cls-18,.cls-7{opacity:0.5;}.cls-14,.cls-15,.cls-8{fill:#51547d;}.cls-10,.cls-12,.cls-15,.cls-16,.cls-17,.cls-9{stroke:#333;}.cls-10,.cls-13,.cls-17{fill:#feb39e;}.cls-10,.cls-12{stroke-miterlimit:10;}.cls-11{fill:#333;}.cls-15,.cls-16,.cls-17{stroke-width:2px;}.cls-18{mix-blend-mode:multiply;}</style><clipPath id="clip-path"><circle class="cls-1" cx="56.57" cy="56.57" r="48.81"/></clipPath></defs><title>MINI_PROFILE_PIC</title><g class="cls-2"><g id="Capa_1" data-name="Capa 1"><g id="FOTO_PERFIL" data-name="FOTO PERFIL"><path class="cls-3" d="M96.95,19.86A54.4,54.4,0,1,1,72.79,4.45"/><path class="cls-3" d="M85.44,10.25a54.72,54.72,0,0,1,5.12,3.62q1.64,1.3,3.17,2.73"/><path class="cls-3" d="M76.63,5.81q2.51,1,4.89,2.22"/><g class="cls-4"><rect class="cls-5" x="5.63" y="-0.56" width="102.09" height="116.25"/><path class="cls-6" d="M93,106.21h-68c-.82,0-.53-.64-.53-1.43h0c0-11.38,9.6-18.33,21.44-18.33l15.26-3.11L73,83.49a21.61,21.61,0,0,1,21.44,21.3h0A1.46,1.46,0,0,1,93,106.21Z"/><g class="cls-7"><path class="cls-8" d="M70.82,83.49l-11.39-.14-.25.05,7.07.09c11.3,0,20.46,9.91,20.46,21.3h0a1.42,1.42,0,0,1-1.42,1.43h4.57a1.42,1.42,0,0,0,1.42-1.43h0C91.28,93.4,82.12,83.49,70.82,83.49Z"/></g><g class="cls-7"><path class="cls-8" d="M73.89,83.64a19.69,19.69,0,0,0-2.44-.15l-11.55-.14L45.14,86.46a26.45,26.45,0,0,0-5.52.57c0,5.83,7.34,10.62,16.25,10.62C66.38,97.65,73.89,90.57,73.89,83.64Z"/></g><path class="cls-9" d="M21.91,106.21a1.43,1.43,0,0,1-1.43-1.43v-.91a20.57,20.57,0,0,1,7.4-15.82"/><path class="cls-9" d="M33.69,84.63a20.56,20.56,0,0,1,7.4-1.37H70.67a20.61,20.61,0,0,1,20.61,20.61v.91a1.43,1.43,0,0,1-1.43,1.43"/><path class="cls-9" d="M30.3,86.23c.64-.42.23-.11.91-.46"/><path class="cls-10" d="M66.38,78.46v5A10.51,10.51,0,0,1,55.88,94h0A10.51,10.51,0,0,1,45.37,83.49v-5"/><path class="cls-11" d="M54.28,86.63a10.68,10.68,0,1,1,0-21.36h3.43a10.68,10.68,0,0,1,0,21.36Z"/><path class="cls-11" d="M57.71,67.27a8.68,8.68,0,1,1,0,17.36H54.28a8.68,8.68,0,1,1,0-17.36h3.43m0-4H54.28a12.68,12.68,0,1,0,0,25.36h3.43a12.68,12.68,0,1,0,0-25.36Z"/><path class="cls-12" d="M35.55,63.39a7.77,7.77,0,1,1,0-15.53"/><path class="cls-13" d="M35.55,60.88a5.25,5.25,0,0,1,0-10.51"/><path class="cls-13" d="M76.43,47.86a7.77,7.77,0,1,1,0,15.53"/><path class="cls-14" d="M76.43,47.86a7.77,7.77,0,1,1,0,15.53"/><path class="cls-12" d="M76.43,47.86a7.77,7.77,0,1,1,0,15.53"/><path class="cls-13" d="M39,44.78v16c0,11.35,8.82,20.55,19.69,20.55h0c10.88,0,19.69-9.2,19.69-20.55V50.26S80,30.5,76.26,29.82s-37.16-.69-37.16-.69Z"/><g class="cls-7"><path class="cls-8" d="M74.44,29.82c-3.56-.69-35.35-.69-35.35-.69h0c9.32,0,27,.17,29.64.67a1.43,1.43,0,0,1,.88.68H39.89s14.47,12.32,31,5.85a110.73,110.73,0,0,1-.18,13.91V60.76c0,10.29-6.89,18.81-15.88,20.32a17.24,17.24,0,0,0,2.85.24h0c10.35,0,18.73-9.2,18.73-20.55V50.26S78,30.5,74.44,29.82Z"/></g><path class="cls-9" d="M72.7,72.74A20.53,20.53,0,0,1,56,81.32h0A20.55,20.55,0,0,1,35.44,60.76V43.63"/><path class="cls-9" d="M74.38,70a1.93,1.93,0,0,1-.23.46"/><path class="cls-9" d="M76.55,48.2V60.76a20.53,20.53,0,0,1-1,6.49"/><rect class="cls-15" x="45.03" y="63.73" width="21.93" height="18.39" rx="9.04" ry="9.04"/><path class="cls-13" d="M57.16,79V74.44H55.28V79H53.36a6,6,0,0,1-6-6V71.61a6,6,0,0,1,6-6h5.26a6,6,0,0,1,6,6V73a6,6,0,0,1-6,6Z"/><path class="cls-11" d="M58.62,66.59a5,5,0,0,1,5,5V73a5,5,0,0,1-5,5h-.46V73.44H54.28V78h-.92a5,5,0,0,1-5-5V71.61a5,5,0,0,1,5-5h5.26m0-2H53.36a7,7,0,0,0-7,7V73a7,7,0,0,0,7,7h5.26a7,7,0,0,0,7-7V71.61a7,7,0,0,0-7-7Z"/><line class="cls-16" x1="39.89" y1="47.63" x2="50.85" y2="47.63"/><circle class="cls-11" cx="47.09" cy="49.57" r="1.94"/><line class="cls-16" x1="60.67" y1="47.63" x2="71.64" y2="47.63"/><circle class="cls-11" cx="65.58" cy="49.57" r="1.94"/><path class="cls-16" d="M59.65,61.33c0,1.39-1.69,2.51-3.77,2.51s-3.77-1.12-3.77-2.51"/><path class="cls-9" d="M60.1,43.86s7.31-6.62,12.1.69"/><path class="cls-9" d="M51.2,43.86s-7.31-6.62-12.1.69"/><path class="cls-17" d="M50.4,68.07s5.64,3.65,11.42,0"/><path class="cls-17" d="M53.59,73a8.69,8.69,0,0,0,5,0"/><path class="cls-8" d="M34.36,48.92A31.71,31.71,0,0,0,37.8,34.38c-.11-10.36,21,6,35.39-3.49,0,0,3.71,2.57,1.85,5.76-1.51,2.6,2.39,16,2.13,15.4,0,0,9.21-18.08-1.91-27.27,0,0-2.63-10-27.1-5.38C35.32,21.82,31.25,38.67,34.36,48.92Z"/><g class="cls-18"><path class="cls-8" d="M77.18,52v0S77.19,52.07,77.18,52Z"/><path class="cls-8" d="M75.26,24.78a6.6,6.6,0,0,0-2.14-2.94c-.63,8.62-18.86,11.35-18.86,11.35,6.18,1.15,13.12,1.55,18.93-2.31,0,0,3.71,2.57,1.85,5.76C73.6,39.11,77,51.3,77.18,52,77.48,51.43,86.2,33.81,75.26,24.78Z"/></g><path class="cls-9" d="M60.73,15.35c-.9-.07-1.85-.1-2.85-.1"/><path class="cls-9" d="M54.89,15.39A54.86,54.86,0,0,0,47,16.66c-20.33,4.71-15.3,25.26-11.65,32.27a55.27,55.27,0,0,0,1.94-15c-.11-10.36,20.67,6.7,35.4-2.81,0,0,4.28,2.34,2.37,5.54s1.74,14.49,1.74,14.49S87.85,34,76.43,24.78c0,0-2.28-7.11-12.73-9"/><line class="cls-9" x1="33.21" y1="105.64" x2="33.21" y2="101.99"/><line class="cls-9" x1="78.8" y1="105.64" x2="78.8" y2="101.99"/></g></g></g></g></svg>