<svg id="Capa_1" data-name="Capa 1" xmlns="http://www.w3.org/2000/svg" xmlns:xlink="http://www.w3.org/1999/xlink" viewBox="0 0 151.26 101.15"><defs><style>.cls-1{fill:url(#Degradado_sin_nombre_5);}.cls-2{fill:url(#Degradado_sin_nombre_5-2);}</style><linearGradient id="Degradado_sin_nombre_5" x1="72.04" y1="145.88" x2="72.04" y2="-34.76" gradientUnits="userSpaceOnUse"><stop offset="0" stop-color="#2db2b1"/><stop offset="0.14" stop-color="#46b69a"/><stop offset="0.41" stop-color="#71bc71"/><stop offset="0.65" stop-color="#91c053"/><stop offset="0.86" stop-color="#a4c341"/><stop offset="1" stop-color="#abc43a"/></linearGradient><linearGradient id="Degradado_sin_nombre_5-2" x1="75.63" y1="145.88" x2="75.63" y2="-34.76" xlink:href="#Degradado_sin_nombre_5"/></defs><title>MOVEMINDS_LOGO_1</title><path class="cls-1" d="M73.9,83.84a8.75,8.75,0,1,0,6.68,10.42A8.76,8.76,0,0,0,73.9,83.84Z"/><path class="cls-2" d="M149,60.31l-2-3.17A26.34,26.34,0,0,0,128.7,28.68,26.35,26.35,0,0,0,102,9.73,26.35,26.35,0,0,0,69.84,3.81a26.28,26.28,0,0,0-35.6,8.1A26.28,26.28,0,0,0,9.1,33.51l-.36.26L5.42,36.42l0,0a14.67,14.67,0,0,0,7.85,26q.75.07,1.49.07A14.55,14.55,0,0,0,24,59.18l8.2-6.71a5.17,5.17,0,0,0,.65-.65,5.17,5.17,0,0,0,.54-.3A63.43,63.43,0,0,1,111.1,58.7a5.14,5.14,0,0,0,1.07,1.37c3.06,2.76,4.62,5.57,4.51,8.14A5,5,0,0,1,114.87,72,4.4,4.4,0,0,1,109,71.5c-7.31-10.19-16.14-20-30.87-23.22a53.36,53.36,0,0,0-23.51-.1C47.74,49.81,37,55.6,35.9,64.85a12.69,12.69,0,0,0,3.94,11.39c4.56,4,11.41,4.22,16.3,3,2.15-.52,4.16-1.18,6.11-1.82,4.28-1.4,8-2.61,11.81-2a14,14,0,0,1,10.75,9.4,5.16,5.16,0,0,0,9.7-3.51C91.37,72.7,84.35,66.7,75.72,65.29c-6.32-1-11.82.77-16.68,2.36-1.84.6-3.58,1.17-5.34,1.6-3.16.77-6,.2-7-.72-.21-.19-.76-.68-.55-2.44.38-3.12,6.06-6.73,10.9-7.87A43.61,43.61,0,0,1,76,58.35c10.48,2.3,17.34,9,24.21,18.49a5.19,5.19,0,0,0,.36.54q.23.31.48.6a5.17,5.17,0,0,0,.66.73A14.58,14.58,0,0,0,110.23,83a14.94,14.94,0,0,0,2,.14,14.47,14.47,0,0,0,12.27-6.73A14.68,14.68,0,0,0,149,60.31ZM140.82,69a4.35,4.35,0,0,1-7.95,1.31l-2.8-4.51a5.17,5.17,0,0,0-.4-.77q-.58-.91-1.19-1.8l-1.19-1.92a5.14,5.14,0,0,0-1.1-1.25A73.69,73.69,0,0,0,27.8,42.84a5.16,5.16,0,0,0-1.15,1,5.16,5.16,0,0,0-1,.64l-8.2,6.71a4.37,4.37,0,0,1-5.55-6.74l3.29-2.63a5.17,5.17,0,0,0,.72-.7,5.16,5.16,0,0,0,3.16-4.31A16,16,0,0,1,36.37,22.27a5.16,5.16,0,0,0,5.15-3A5.13,5.13,0,0,0,42.58,18a16,16,0,0,1,22-5.33,5.14,5.14,0,0,0,1.65.64,5.15,5.15,0,0,0,6.72.67,16,16,0,0,1,22.19,3.7,5.16,5.16,0,0,0,5.44,2.58,16,16,0,0,1,18.61,12.85,5.14,5.14,0,0,0,2.07,3.26,5.13,5.13,0,0,0,2.94,1.77A16,16,0,0,1,136.61,57a5.14,5.14,0,0,0,.92,4.12,5.16,5.16,0,0,0,.51,1.05l2.26,3.56A4.33,4.33,0,0,1,140.82,69Z"/></svg>