<svg id="Capa_1" data-name="Capa 1" xmlns="http://www.w3.org/2000/svg" viewBox="0 0 297.45 42.19"><defs><style>.cls-1,.cls-2{fill:#fff;}.cls-1{fill-rule:evenodd;}</style></defs><title>MOVEMINDS_LOGO</title><g id="LOGO"><path class="cls-1" d="M30.83,35a3.65,3.65,0,1,1-4.34,2.79A3.65,3.65,0,0,1,30.83,35Z"/><path class="cls-2" d="M62.18,25.16l-.84-1.32A11,11,0,0,0,53.69,12a11,11,0,0,0-11.15-7.9,11,11,0,0,0-13.4-2.47A11,11,0,0,0,14.28,5,11,11,0,0,0,3.8,14l-.15.11L2.26,15.19l0,0A6.12,6.12,0,0,0,5.51,26q.31,0,.62,0A6.07,6.07,0,0,0,10,24.69l3.42-2.8a2.16,2.16,0,0,0,.27-.27l.23-.13a26.46,26.46,0,0,1,32.43,3,2.14,2.14,0,0,0,.45.57,4.63,4.63,0,0,1,1.88,3.4A2.1,2.1,0,0,1,47.92,30a1.83,1.83,0,0,1-2.43-.2c-3-4.25-6.73-8.34-12.88-9.69a22.26,22.26,0,0,0-9.81,0c-2.89.68-7.37,3.1-7.83,7a5.29,5.29,0,0,0,1.64,4.75c1.9,1.69,4.76,1.76,6.8,1.26.9-.22,1.74-.49,2.55-.76a10.5,10.5,0,0,1,4.93-.83,5.82,5.82,0,0,1,4.48,3.92,2.15,2.15,0,1,0,4-1.47,10.06,10.06,0,0,0-7.84-6.7,14.29,14.29,0,0,0-7,1c-.77.25-1.49.49-2.23.67a3.64,3.64,0,0,1-2.92-.3c-.09-.08-.32-.28-.23-1,.16-1.3,2.53-2.81,4.55-3.28a18.19,18.19,0,0,1,7.89.06c4.37,1,7.23,3.77,10.1,7.71a2.16,2.16,0,0,0,.15.23l.2.25a2.16,2.16,0,0,0,.28.3A6.08,6.08,0,0,0,46,34.64a6.25,6.25,0,0,0,.85.06A6,6,0,0,0,52,31.89a6.12,6.12,0,0,0,10.22-6.73ZM58.74,28.8a1.82,1.82,0,0,1-3.32.55l-1.17-1.88a2.16,2.16,0,0,0-.17-.32l-.5-.75-.5-.8a2.15,2.15,0,0,0-.46-.52,30.74,30.74,0,0,0-41-7.2,2.15,2.15,0,0,0-.48.42,2.15,2.15,0,0,0-.42.27l-3.42,2.8A1.82,1.82,0,0,1,5,18.55l1.37-1.1a2.16,2.16,0,0,0,.3-.29,2.15,2.15,0,0,0,1.32-1.8,6.67,6.67,0,0,1,7.22-6.07A2.15,2.15,0,0,0,17.32,8a2.14,2.14,0,0,0,.44-.51,6.66,6.66,0,0,1,9.17-2.23,2.14,2.14,0,0,0,.69.27,2.15,2.15,0,0,0,2.8.28,6.68,6.68,0,0,1,9.26,1.54,2.15,2.15,0,0,0,2.27,1.08,6.68,6.68,0,0,1,7.76,5.36,2.14,2.14,0,0,0,.86,1.36,2.14,2.14,0,0,0,1.23.74A6.68,6.68,0,0,1,57,23.79a2.14,2.14,0,0,0,.38,1.72,2.15,2.15,0,0,0,.21.44l.94,1.48A1.81,1.81,0,0,1,58.74,28.8Z"/><path class="cls-2" d="M88.25,12a12,12,0,0,1,3.37.48,8.31,8.31,0,0,1,2.87,1.45,12.4,12.4,0,0,1,2.83-1.38,11.65,11.65,0,0,1,3.79-.54,11.78,11.78,0,0,1,3.12.42A8,8,0,0,1,107,13.74a6.39,6.39,0,0,1,1.91,2.39,8.35,8.35,0,0,1,.71,3.63V33a9.69,9.69,0,0,1-1.32.25,13.49,13.49,0,0,1-1.87.13,9.85,9.85,0,0,1-1.66-.13,2.82,2.82,0,0,1-1.24-.5,2.42,2.42,0,0,1-.78-1,4.44,4.44,0,0,1-.27-1.7V20a2.19,2.19,0,0,0-.71-1.82,3,3,0,0,0-1.93-.57,3.35,3.35,0,0,0-1.26.27,3.62,3.62,0,0,0-1,.57,1.33,1.33,0,0,1,0,.31V33a11.69,11.69,0,0,1-1.36.25,13.2,13.2,0,0,1-1.82.13,9.85,9.85,0,0,1-1.66-.13,2.82,2.82,0,0,1-1.24-.5,2.42,2.42,0,0,1-.78-1,4.44,4.44,0,0,1-.27-1.7V20a2.11,2.11,0,0,0-.78-1.82,3.08,3.08,0,0,0-1.87-.57,3.33,3.33,0,0,0-1.3.23,9.84,9.84,0,0,0-.92.44V33a9.69,9.69,0,0,1-1.32.25,13.49,13.49,0,0,1-1.86.13,9.85,9.85,0,0,1-1.66-.13,2.82,2.82,0,0,1-1.24-.5,2.42,2.42,0,0,1-.78-1,4.44,4.44,0,0,1-.27-1.7V17.33a3,3,0,0,1,.48-1.8,5.45,5.45,0,0,1,1.32-1.26,12.06,12.06,0,0,1,3.54-1.63A15.45,15.45,0,0,1,88.25,12Z"/><path class="cls-2" d="M135,22.82a12.63,12.63,0,0,1-.8,4.63A9.39,9.39,0,0,1,132,30.87a9.53,9.53,0,0,1-3.46,2.1,13.37,13.37,0,0,1-4.48.71,12.69,12.69,0,0,1-4.48-.75,9.87,9.87,0,0,1-3.46-2.16,9.62,9.62,0,0,1-2.24-3.42,12.21,12.21,0,0,1-.8-4.53,12.09,12.09,0,0,1,.8-4.48,9.63,9.63,0,0,1,2.24-3.42,9.87,9.87,0,0,1,3.46-2.16A12.68,12.68,0,0,1,124,12a12.39,12.39,0,0,1,4.48.78A10.13,10.13,0,0,1,132,15a9.64,9.64,0,0,1,2.24,3.42A12,12,0,0,1,135,22.82Zm-14.67,0a6.62,6.62,0,0,0,1,3.92,3.19,3.19,0,0,0,2.75,1.36,3.08,3.08,0,0,0,2.7-1.38,6.87,6.87,0,0,0,.94-3.9,6.65,6.65,0,0,0-1-3.88,3.41,3.41,0,0,0-5.45,0A6.65,6.65,0,0,0,120.35,22.82Z"/><path class="cls-2" d="M151.58,32.46a4.71,4.71,0,0,1-1.72.75,10.22,10.22,0,0,1-2.56.29,8.57,8.57,0,0,1-2.83-.42,2.76,2.76,0,0,1-1.66-1.34q-.38-.71-.9-2t-1.11-2.85q-.59-1.57-1.22-3.37T138.4,20q-.57-1.76-1-3.4t-.75-2.89a5.44,5.44,0,0,1,3.73-1.47,4.38,4.38,0,0,1,2.41.61,3.78,3.78,0,0,1,1.4,2.28l1.63,6.41q.46,1.89.88,3.42t.63,2.37h.21q.8-3.1,1.68-6.87T150.78,13a6.68,6.68,0,0,1,1.61-.59,7.68,7.68,0,0,1,1.74-.21,4.58,4.58,0,0,1,2.47.63,2.37,2.37,0,0,1,1,2.18A8.91,8.91,0,0,1,157.3,17q-.31,1.28-.8,2.89t-1.13,3.42q-.65,1.8-1.32,3.52T152.73,30Q152.08,31.49,151.58,32.46Z"/><path class="cls-2" d="M171.36,33.67a14.7,14.7,0,0,1-4.59-.69,10.4,10.4,0,0,1-3.69-2.07,9.6,9.6,0,0,1-2.47-3.48,12.33,12.33,0,0,1-.9-4.9,11.47,11.47,0,0,1,.9-4.76,9.21,9.21,0,0,1,5.72-5.16,12.51,12.51,0,0,1,3.86-.61,11.65,11.65,0,0,1,4,.67,9.73,9.73,0,0,1,3.14,1.84,8.21,8.21,0,0,1,2.05,2.81,8.61,8.61,0,0,1,.73,3.56,2.86,2.86,0,0,1-.8,2.18,4,4,0,0,1-2.22,1l-10.35,1.55a3.48,3.48,0,0,0,1.89,2.07,7.4,7.4,0,0,0,3.27.69,11.7,11.7,0,0,0,3.25-.44,10.32,10.32,0,0,0,2.49-1,3.52,3.52,0,0,1,1.13,1.17,3.08,3.08,0,0,1-1.3,4.4,9.33,9.33,0,0,1-3,1A21.24,21.24,0,0,1,171.36,33.67ZM170.19,17.2a4.16,4.16,0,0,0-1.74.34,3.51,3.51,0,0,0-1.19.86,3.56,3.56,0,0,0-.69,1.17,4.81,4.81,0,0,0-.27,1.32l7.17-1.17a3.17,3.17,0,0,0-.92-1.68A3.09,3.09,0,0,0,170.19,17.2Z"/><path class="cls-2" d="M193.75,11.62a12,12,0,0,1,3.37.48A8.31,8.31,0,0,1,200,13.55a12.4,12.4,0,0,1,2.83-1.38,11.65,11.65,0,0,1,3.79-.54,11.78,11.78,0,0,1,3.12.42,8,8,0,0,1,2.72,1.32,6.39,6.39,0,0,1,1.91,2.39,8.35,8.35,0,0,1,.71,3.63v13.2a9.7,9.7,0,0,1-1.32.25,13.51,13.51,0,0,1-1.87.13,9.87,9.87,0,0,1-1.66-.13,2.82,2.82,0,0,1-1.24-.5,2.41,2.41,0,0,1-.78-1,4.44,4.44,0,0,1-.27-1.7v-10a2.19,2.19,0,0,0-.71-1.82,3,3,0,0,0-1.93-.57,3.35,3.35,0,0,0-1.26.27,3.63,3.63,0,0,0-1,.57,1.32,1.32,0,0,1,0,.31V32.58a11.71,11.71,0,0,1-1.36.25,13.21,13.21,0,0,1-1.82.13,9.86,9.86,0,0,1-1.66-.13,2.82,2.82,0,0,1-1.24-.5,2.42,2.42,0,0,1-.78-1,4.44,4.44,0,0,1-.27-1.7v-10a2.11,2.11,0,0,0-.78-1.82,3.08,3.08,0,0,0-1.87-.57,3.33,3.33,0,0,0-1.3.23,9.84,9.84,0,0,0-.92.44V32.58a9.7,9.7,0,0,1-1.32.25,13.51,13.51,0,0,1-1.87.13,9.86,9.86,0,0,1-1.66-.13,2.82,2.82,0,0,1-1.24-.5,2.42,2.42,0,0,1-.78-1,4.44,4.44,0,0,1-.27-1.7V16.94a3,3,0,0,1,.48-1.8,5.45,5.45,0,0,1,1.32-1.26,12.06,12.06,0,0,1,3.54-1.63A15.45,15.45,0,0,1,193.75,11.62Z"/><path class="cls-2" d="M226.74,32.58l-1.36.23a11.37,11.37,0,0,1-1.82.15,9.87,9.87,0,0,1-1.66-.13,2.82,2.82,0,0,1-1.24-.5,2.42,2.42,0,0,1-.78-1,4.44,4.44,0,0,1-.27-1.7V12.54l1.36-.23a11.36,11.36,0,0,1,1.82-.15,9.85,9.85,0,0,1,1.66.13,2.82,2.82,0,0,1,1.24.5,2.42,2.42,0,0,1,.78,1,4.45,4.45,0,0,1,.27,1.7Z"/><path class="cls-2" d="M244.17,19.71a2.34,2.34,0,0,0-.73-1.91,3,3,0,0,0-2-.61,6.65,6.65,0,0,0-1.66.21,4.18,4.18,0,0,0-1.4.63V32.58a9.7,9.7,0,0,1-1.32.25,13.51,13.51,0,0,1-1.87.13,9.86,9.86,0,0,1-1.66-.13,2.82,2.82,0,0,1-1.24-.5,2.42,2.42,0,0,1-.78-1,4.44,4.44,0,0,1-.27-1.7V17a3.23,3.23,0,0,1,.48-1.84,5.08,5.08,0,0,1,1.32-1.3,12,12,0,0,1,3.58-1.63,17.13,17.13,0,0,1,4.8-.63q4.74,0,7.29,2.07a7,7,0,0,1,2.56,5.76V32.58a9.7,9.7,0,0,1-1.32.25,13.51,13.51,0,0,1-1.87.13,9.87,9.87,0,0,1-1.66-.13,2.82,2.82,0,0,1-1.24-.5,2.42,2.42,0,0,1-.78-1,4.43,4.43,0,0,1-.27-1.7Z"/><path class="cls-2" d="M254.82,22.44a12.54,12.54,0,0,1,.84-4.8A9.17,9.17,0,0,1,258,14.26a9.56,9.56,0,0,1,3.48-2,13.78,13.78,0,0,1,4.3-.65,9,9,0,0,1,1.63.15,6.57,6.57,0,0,1,1.3.36V5.33A11.44,11.44,0,0,1,270,5.06a12,12,0,0,1,1.89-.15,9.86,9.86,0,0,1,1.66.13,2.82,2.82,0,0,1,1.24.5,2.28,2.28,0,0,1,.75,1,4.79,4.79,0,0,1,.25,1.7V28.14A3.58,3.58,0,0,1,274,31.28a12.77,12.77,0,0,1-3.14,1.4,16.35,16.35,0,0,1-9.33-.15,9.91,9.91,0,0,1-3.65-2.18,9.37,9.37,0,0,1-2.26-3.42A12.33,12.33,0,0,1,254.82,22.44Zm11.9-5.24a4.53,4.53,0,0,0-3.48,1.3A5.59,5.59,0,0,0,262,22.44a5.88,5.88,0,0,0,1.13,3.92,4.07,4.07,0,0,0,3.27,1.32,3.82,3.82,0,0,0,1.36-.23,3.1,3.1,0,0,0,.94-.52V17.7A3.84,3.84,0,0,0,266.72,17.2Z"/><path class="cls-2" d="M297.45,26.54a5.9,5.9,0,0,1-2.39,5q-2.39,1.8-7,1.8a19.93,19.93,0,0,1-3.27-.25,9.37,9.37,0,0,1-2.58-.78A4.61,4.61,0,0,1,280.49,31a3,3,0,0,1-.61-1.89,3.22,3.22,0,0,1,.42-1.7,4.24,4.24,0,0,1,1-1.15,16.67,16.67,0,0,0,2.79,1.19,11.44,11.44,0,0,0,3.63.52,4.23,4.23,0,0,0,2-.38,1.13,1.13,0,0,0,.69-1,1.05,1.05,0,0,0-.5-.92,4.67,4.67,0,0,0-1.68-.54L287,24.87a11.76,11.76,0,0,1-5.43-2.24,5.46,5.46,0,0,1-1.78-4.38,5.78,5.78,0,0,1,2.56-4.9,9.47,9.47,0,0,1,2.91-1.3,14.31,14.31,0,0,1,3.75-.46,17.55,17.55,0,0,1,2.91.23,9.51,9.51,0,0,1,2.37.69,4.29,4.29,0,0,1,1.59,1.19,2.7,2.7,0,0,1,.59,1.74,3.58,3.58,0,0,1-.36,1.66,3.72,3.72,0,0,1-.9,1.15,5.2,5.2,0,0,0-1-.44q-.67-.23-1.47-.42t-1.61-.31a9.84,9.84,0,0,0-1.49-.13,5.75,5.75,0,0,0-2.14.31,1,1,0,0,0-.75,1,.89.89,0,0,0,.42.75,4.8,4.8,0,0,0,1.59.54l1.3.29a12.37,12.37,0,0,1,5.72,2.54A5.5,5.5,0,0,1,297.45,26.54Z"/></g></svg>