<svg xmlns="http://www.w3.org/2000/svg" xmlns:xlink="http://www.w3.org/1999/xlink" viewBox="0 0 204 213.04"><defs><style>.cls-1,.cls-12,.cls-16,.cls-3,.cls-9{fill:none;}.cls-2{isolation:isolate;}.cls-3{stroke:#fff;}.cls-15,.cls-16,.cls-17,.cls-3,.cls-9{stroke-linecap:round;stroke-linejoin:round;}.cls-10,.cls-12,.cls-3,.cls-9{stroke-width:4px;}.cls-4{clip-path:url(#clip-path);}.cls-5{fill:#fff;}.cls-6{fill:#ff5361;}.cls-14,.cls-18,.cls-7{opacity:0.5;}.cls-14,.cls-15,.cls-8{fill:#51547d;}.cls-10,.cls-12,.cls-15,.cls-16,.cls-17,.cls-9{stroke:#333;}.cls-10,.cls-13,.cls-17{fill:#feb39e;}.cls-10,.cls-12{stroke-miterlimit:10;}.cls-11{fill:#333;}.cls-15,.cls-16,.cls-17{stroke-width:2px;}.cls-18{mix-blend-mode:multiply;}</style><clipPath id="clip-path"><circle class="cls-1" cx="102" cy="104.69" r="89.44"/></clipPath></defs><title>PROFILE_PIC</title><g class="cls-2"><g id="Capa_1" data-name="Capa 1"><g id="FOTO_PERFIL" data-name="FOTO PERFIL"><path class="cls-3" d="M176,37.43A99.7,99.7,0,1,1,131.74,9.19"/><path class="cls-3" d="M154.91,19.82a100.28,100.28,0,0,1,9.38,6.63q3,2.39,5.8,5"/><path class="cls-3" d="M138.76,11.67q4.6,1.82,9,4.07"/><g class="cls-4"><rect class="cls-5" x="8.66" width="187.09" height="213.04"/><path class="cls-6" d="M168.75,195.67H44c-1.5,0-1-1.17-1-2.62h0c0-20.86,17.59-33.59,39.28-33.59l28-5.7,21.87.26c21.7,0,39.28,18.17,39.28,39h0A2.67,2.67,0,0,1,168.75,195.67Z"/><g class="cls-7"><path class="cls-8" d="M128.12,154l-20.88-.26-.45.1,13,.16c20.71,0,37.49,18.17,37.49,39h0a2.61,2.61,0,0,1-2.6,2.62H163a2.61,2.61,0,0,0,2.6-2.62h0C165.61,172.19,148.83,154,128.12,154Z"/></g><g class="cls-7"><path class="cls-8" d="M133.75,154.31a36.08,36.08,0,0,0-4.47-.28l-21.16-.26-27.06,5.7a48.47,48.47,0,0,0-10.11,1C71,171.19,84.41,180,100.74,180,120,180,133.75,167,133.75,154.31Z"/></g><path class="cls-9" d="M38.48,195.67a2.62,2.62,0,0,1-2.62-2.62v-1.67a37.69,37.69,0,0,1,13.55-29"/><path class="cls-9" d="M60.07,156.12a37.68,37.68,0,0,1,13.57-2.51h54.2a37.77,37.77,0,0,1,37.77,37.77v1.67a2.62,2.62,0,0,1-2.62,2.62"/><path class="cls-9" d="M53.86,159c1.17-.77.42-.19,1.67-.84"/><path class="cls-10" d="M120,144.82V154a19.25,19.25,0,0,1-19.25,19.25h0A19.25,19.25,0,0,1,81.49,154v-9.21"/><path class="cls-11" d="M97.81,158.12a17.91,17.91,0,1,1,0-35.81h6.28a17.91,17.91,0,0,1,0,35.81Z"/><path class="cls-11" d="M104.09,124.31a15.9,15.9,0,1,1,0,31.81H97.81a15.9,15.9,0,1,1,0-31.81h6.28m0-4H97.81a19.9,19.9,0,1,0,0,39.81h6.28a19.9,19.9,0,1,0,0-39.81Z"/><path class="cls-12" d="M63.49,117.19a14.23,14.23,0,1,1,0-28.46"/><path class="cls-13" d="M63.49,112.59a9.63,9.63,0,0,1,0-19.25"/><path class="cls-13" d="M138.41,88.73a14.23,14.23,0,1,1,0,28.46"/><path class="cls-14" d="M138.41,88.73a14.23,14.23,0,1,1,0,28.46"/><path class="cls-12" d="M138.41,88.73a14.23,14.23,0,1,1,0,28.46"/><path class="cls-13" d="M69.77,83.08v29.3c0,20.8,16.16,37.67,36.09,37.67h0c19.93,0,36.09-16.87,36.09-37.67V93.13s3-36.2-3.85-37.46S70,54.41,70,54.41Z"/><g class="cls-7"><path class="cls-8" d="M134.76,55.67C128.24,54.41,70,54.41,70,54.41v0c17.08.07,49.55.31,54.32,1.23a2.62,2.62,0,0,1,1.62,1.25H71.44S98,79.48,128.29,67.64c.82,11-.33,25.49-.33,25.49v19.25c0,18.85-12.62,34.47-29.1,37.23a31.6,31.6,0,0,0,5.23.43h0c19,0,34.33-16.87,34.33-37.67V93.13S141.28,56.92,134.76,55.67Z"/></g><path class="cls-9" d="M131.56,134.34A37.62,37.62,0,0,1,100.95,150h0a37.67,37.67,0,0,1-37.67-37.67V81"/><path class="cls-9" d="M134.64,129.33a3.54,3.54,0,0,1-.42.84"/><path class="cls-9" d="M138.62,89.36v23a37.63,37.63,0,0,1-1.92,11.89"/><rect class="cls-15" x="80.86" y="117.82" width="40.18" height="33.69" rx="16.85" ry="16.85"/><path class="cls-13" d="M103.92,145v-8.37H98.81V145H96.13a10.23,10.23,0,0,1-10.21-10.21v-2.5a10.23,10.23,0,0,1,10.21-10.21h9.64A10.22,10.22,0,0,1,116,132.27v2.5A10.22,10.22,0,0,1,105.77,145Z"/><path class="cls-11" d="M105.77,123.05a9.21,9.21,0,0,1,9.21,9.21v2.5a9.21,9.21,0,0,1-9.21,9.21h-.84v-8.37H97.81V144H96.13a9.21,9.21,0,0,1-9.21-9.21v-2.5a9.21,9.21,0,0,1,9.21-9.21h9.64m0-2H96.13a11.23,11.23,0,0,0-11.21,11.21v2.5A11.23,11.23,0,0,0,96.13,146h3.68v-8.37h3.12V146h2.84A11.23,11.23,0,0,0,117,134.77v-2.5a11.23,11.23,0,0,0-11.21-11.21Z"/><line class="cls-16" x1="71.44" y1="88.31" x2="91.53" y2="88.31"/><circle class="cls-11" cx="84.62" cy="91.87" r="3.56"/><line class="cls-16" x1="109.53" y1="88.31" x2="129.62" y2="88.31"/><circle class="cls-11" cx="118.53" cy="91.87" r="3.56"/><path class="cls-16" d="M107.64,113.43c0,2.54-3.09,4.6-6.91,4.6s-6.91-2.06-6.91-4.6"/><path class="cls-9" d="M108.48,81.41s13.39-12.14,22.18,1.26"/><path class="cls-9" d="M92.16,81.41S78.76,69.27,70,82.66"/><path class="cls-17" d="M90.69,125.77s10.33,6.7,20.93,0"/><path class="cls-17" d="M96.55,134.84a15.93,15.93,0,0,0,9.21,0"/><path class="cls-8" d="M61.31,90.69A58.11,58.11,0,0,0,67.61,64c-.2-19,38.57,11,64.86-6.4,0,0,6.8,4.71,3.39,10.56-2.78,4.76,4.38,29.31,3.9,28.22,0,0,16.88-33.13-3.5-50,0,0-4.82-18.32-49.66-9.86C63.07,41,55.6,71.89,61.31,90.69Z"/><g class="cls-18"><path class="cls-8" d="M139.78,96.38l0,0C139.78,96.46,139.79,96.45,139.78,96.38Z"/><path class="cls-8" d="M136.26,46.44a12.1,12.1,0,0,0-3.93-5.38c-1.16,15.79-34.56,20.8-34.56,20.8,11.33,2.1,24,2.83,34.69-4.23,0,0,6.8,4.71,3.39,10.56-2.63,4.52,3.68,26.86,3.92,28.19C140.32,95.28,156.3,63,136.26,46.44Z"/></g><path class="cls-9" d="M109.63,29.15C108,29,106.24,29,104.41,29"/><path class="cls-9" d="M98.93,29.22a100.54,100.54,0,0,0-14.51,2.33c-37.25,8.63-28,46.29-21.35,59.13a101.29,101.29,0,0,0,3.56-27.5c-.21-19,37.88,12.28,64.88-5.14,0,0,7.84,4.29,4.34,10.14S139,94.73,139,94.73s20.3-31.46-.63-48.3c0,0-4.18-13-23.32-16.58"/><line class="cls-9" x1="59.2" y1="194.63" x2="59.2" y2="187.93"/><line class="cls-9" x1="142.74" y1="194.63" x2="142.74" y2="187.93"/></g></g></g></g></svg>