<svg id="Capa_1" data-name="Capa 1" xmlns="http://www.w3.org/2000/svg" viewBox="0 0 166.76 166.76"><defs><style>.cls-1{fill:#1b689e;}.cls-2{fill:none;stroke:#fff;stroke-linecap:round;stroke-linejoin:round;stroke-width:4px;}</style></defs><title>SOCIAL_BTN</title><g id="RED_SOCIAL" data-name="RED SOCIAL"><circle class="cls-1" cx="83.38" cy="83.38" r="83.38"/><line class="cls-2" x1="75.57" y1="76.16" x2="74.73" y2="76.91"/><path class="cls-2" d="M71.82,81.79a10.76,10.76,0,0,0-.54,3.7,12.29,12.29,0,0,0,8,11.51c-8.17,2.68-8,12.88-8,12.88h24.6s.18-10.2-8-12.88A12.3,12.3,0,0,0,80.5,73.57"/><path class="cls-2" d="M81.64,65.83a12.3,12.3,0,1,0-16.12,15c-8.17,2.68-8,12.88-8,12.88h8.89"/><path class="cls-2" d="M109.52,69.28a12.3,12.3,0,0,0-22.26-7.22"/><path class="cls-2" d="M107.93,75.32l.67-1.06"/><path class="cls-2" d="M100.71,93.66h8.81s.18-10.2-8-12.88a12.33,12.33,0,0,0,3.41-1.94"/></g></svg>