<svg id="Capa_1" data-name="Capa 1" xmlns="http://www.w3.org/2000/svg" viewBox="0 0 86.63 86.64"><defs><style>.cls-1{fill:#1b689e;}.cls-2{fill:none;stroke:#fff;stroke-linecap:round;stroke-linejoin:round;stroke-width:3px;}</style></defs><title>SOCIAL_MINIBTN</title><circle class="cls-1" cx="43.32" cy="43.32" r="43.32"/><line class="cls-2" x1="38.13" y1="38.53" x2="37.57" y2="39.03"/><path class="cls-2" d="M35.64,42.26a7.12,7.12,0,0,0-.35,2.45,8.14,8.14,0,0,0,5.29,7.62c-5.41,1.77-5.29,8.53-5.29,8.53H51.58s.12-6.75-5.29-8.53a8.14,8.14,0,0,0-4.89-15.51"/><path class="cls-2" d="M42.14,31.69A8.15,8.15,0,1,0,31.47,41.6c-5.41,1.77-5.29,8.53-5.29,8.53h5.88"/><path class="cls-2" d="M60.61,34a8.15,8.15,0,0,0-14.74-4.78"/><path class="cls-2" d="M59.56,38l.44-.7"/><path class="cls-2" d="M54.77,50.12h5.84s.12-6.75-5.29-8.53a8.17,8.17,0,0,0,2.26-1.29"/></svg>