<svg id="Capa_1" data-name="Capa 1" xmlns="http://www.w3.org/2000/svg" viewBox="0 0 87.11 87.11"><defs><style>.cls-1{fill:#b3b3b3;}.cls-2{fill:#00c674;}.cls-3{fill:none;stroke:#fff;stroke-linecap:round;stroke-linejoin:round;stroke-width:3px;}</style></defs><title>INNOVACION_MINIBTN</title><path class="cls-1" d="M1.4,46.9a42.65,42.65,0,0,1,85.3,0"/><circle class="cls-2" cx="43.56" cy="43.56" r="43.56"/><rect class="cls-3" x="37.73" y="53.68" width="11.58" height="7.99"/><line class="cls-3" x1="37.75" y1="58.27" x2="49.3" y2="57.59"/><path class="cls-3" d="M52.88,29.87A12.33,12.33,0,1,0,39.22,49.45v4.23h8.6V49.45A12.37,12.37,0,0,0,55.16,42"/><path class="cls-3" d="M55.85,36.81a5.38,5.38,0,0,0-.41-2.07"/><path class="cls-3" d="M39.26,31.06A8.51,8.51,0,0,0,35,38.44"/><path class="cls-3" d="M43.52,29.92c-.58,0,.29-.11-.26,0"/></svg>