<svg id="Capa_1" data-name="Capa 1" xmlns="http://www.w3.org/2000/svg" viewBox="0 0 90.63 90.64"><defs><style>.cls-1{fill:#fff;stroke-miterlimit:10;stroke-width:4px;}.cls-1,.cls-2{stroke:#1b689e;}.cls-2{fill:none;stroke-linecap:round;stroke-linejoin:round;stroke-width:3px;}</style></defs><title>SOCIAL_MINIBTN_OVER</title><circle class="cls-1" cx="45.32" cy="45.32" r="43.32"/><line class="cls-2" x1="40.13" y1="40.53" x2="39.57" y2="41.03"/><path class="cls-2" d="M37.64,44.26a7.12,7.12,0,0,0-.35,2.45,8.14,8.14,0,0,0,5.29,7.62c-5.41,1.77-5.29,8.53-5.29,8.53H53.58s.12-6.75-5.29-8.53a8.14,8.14,0,0,0-4.89-15.51"/><path class="cls-2" d="M44.14,33.69A8.15,8.15,0,1,0,33.47,43.6c-5.41,1.77-5.29,8.53-5.29,8.53h5.88"/><path class="cls-2" d="M62.61,36a8.15,8.15,0,0,0-14.74-4.78"/><path class="cls-2" d="M61.56,40l.44-.7"/><path class="cls-2" d="M56.77,52.12h5.84s.12-6.75-5.29-8.53a8.17,8.17,0,0,0,2.26-1.29"/></svg>